<svg xmlns="http://www.w3.org/2000/svg" xmlns:xlink="http://www.w3.org/1999/xlink" viewBox="0 0 32 32" width="50" height="50" style="" filter="none">
    
    <g>
    <path d="M16 10.72h8.64c0.256 0 0.256 0 0.256 0.224v12.544c0 0.009 0 0.019 0 0.029 0 1.191-0.956 2.159-2.142 2.179l-0.002 0c-0.416 0.032-0.832 0-1.248 0-0.224 0-0.224 0-0.224 0.224v4.064c-0.004 1.036-0.78 1.889-1.782 2.015l-0.010 0.001c-0.992 0.096-1.92-0.576-2.144-1.6-0.032-0.128-0.032-0.288-0.032-0.448v-4.032c0-0.224 0-0.224-0.192-0.224-0.768 0-1.536 0.032-2.272 0-0.16 0-0.192 0.064-0.192 0.192v4.128c0 0.8-0.48 1.536-1.216 1.824-0.225 0.098-0.488 0.155-0.763 0.155-0.555 0-1.056-0.231-1.412-0.602l-0.001-0.001c-0.384-0.384-0.544-0.832-0.544-1.376-0.015-0.615-0.024-1.338-0.024-2.064s0.009-1.449 0.026-2.171l-0.002 0.107c0-0.128-0.064-0.192-0.192-0.192-0.512 0-1.024 0.032-1.568 0-1.024-0.128-1.856-1.056-1.856-2.080v-12.672c0-0.224 0-0.224 0.224-0.224h8.672zM15.968 10.048h-8.704c-0.128 0-0.192-0.032-0.16-0.192 0.032-0.896 0.192-1.792 0.544-2.624 0.494-1.236 1.248-2.277 2.198-3.095l0.010-0.009c0.479-0.423 1.014-0.804 1.585-1.128l0.047-0.024c0.128-0.064 0.128-0.096 0.064-0.192-0.416-0.736-0.8-1.472-1.216-2.208l-0.064-0.128c-0.096-0.192-0.032-0.352 0.096-0.416 0.16-0.064 0.32-0.032 0.384 0.16l0.416 0.704c0.288 0.544 0.576 1.056 0.864 1.6 0.064 0.16 0.128 0.16 0.288 0.096 1.081-0.453 2.338-0.716 3.655-0.716 0.166 0 0.331 0.004 0.496 0.012l-0.023-0.001c1.199 0.038 2.327 0.305 3.353 0.759l-0.057-0.023c0.096 0.064 0.128 0 0.192-0.064l1.248-2.304c0.064-0.096 0.096-0.224 0.224-0.224 0.096-0.032 0.224-0.032 0.288 0.064 0.096 0.096 0.096 0.224 0.032 0.352-0.224 0.384-0.448 0.8-0.672 1.216-0.224 0.384-0.416 0.736-0.608 1.12-0.064 0.096-0.064 0.16 0.064 0.224 1.402 0.731 2.535 1.812 3.307 3.13l0.021 0.038c0.606 1.008 0.99 2.213 1.055 3.502l0.001 0.018c0 0.352 0 0.352-0.352 0.352h-8.576zM11.968 5.312c-0.448 0-0.768 0.352-0.768 0.768s0.352 0.736 0.736 0.736c0.416 0 0.768-0.32 0.768-0.736s-0.352-0.768-0.736-0.768zM19.296 6.048c0 0.416 0.32 0.768 0.736 0.768s0.768-0.32 0.768-0.736-0.32-0.736-0.736-0.768c-0.416 0-0.768 0.32-0.768 0.736zM6.4 16.48v4.096c0 0.992-0.704 1.824-1.632 1.984-1.024 0.128-1.952-0.448-2.24-1.408-0.064-0.224-0.064-0.416-0.064-0.64v-8.128c0-0.992 0.576-1.76 1.504-1.984 1.248-0.32 2.432 0.64 2.432 1.888v4.192zM29.536 16.448v4.256c-0.032 1.12-1.088 1.984-2.176 1.856s-1.792-0.928-1.792-2.016v-8.224c0-1.12 0.928-2.016 2.016-1.984s1.952 0.896 1.952 2.016v4.096z" fill="rgba(16,46,108,1)"></path>
    </g>
  </svg>